<svg width="192" height="33" viewBox="0 0 192 33" fill="none" xmlns="http://www.w3.org/2000/svg">
<path d="M1 27.9C0.822667 27.9 0.658 27.824 0.506 27.672C0.328667 27.52 0.24 27.3047 0.24 27.026C0.24 26.8233 0.303333 26.57 0.43 26.266C0.556667 25.962 0.784667 25.6327 1.114 25.278C1.69667 23.986 2.24133 22.9347 2.748 22.124C3.28 21.3133 3.87533 20.4393 4.534 19.502C4.20467 19.4513 3.964 19.3373 3.812 19.16C3.66 18.9573 3.584 18.7293 3.584 18.476C3.584 18.0707 3.698 17.6907 3.926 17.336C4.17933 16.956 4.40733 16.766 4.61 16.766C4.914 16.766 5.23067 16.728 5.56 16.652C5.91467 16.576 6.26933 16.538 6.624 16.538C7.536 15.2207 8.27067 14.1313 8.828 13.27C9.41067 12.4087 9.87933 11.712 10.234 11.18C10.5887 10.648 10.8927 10.2047 11.146 9.85C11.4247 9.49533 11.7033 9.166 11.982 8.862C12.2607 8.53267 12.6027 8.15267 13.008 7.722C13.4133 7.29133 13.9453 6.74667 14.604 6.088C14.2747 5.404 14.11 4.73267 14.11 4.074C14.11 3.162 14.376 2.41467 14.908 1.832C15.44 1.24933 15.9973 0.957999 16.58 0.957999C16.884 0.957999 17.1627 1.04667 17.416 1.224C17.6947 1.376 17.9227 1.65467 18.1 2.06C18.8093 3.68133 19.3033 5.746 19.582 8.254C19.886 10.762 20.0887 13.422 20.19 16.234C22.09 16.386 23.4073 16.728 24.142 17.26C23.8127 17.3613 23.306 17.4753 22.622 17.602C21.938 17.7033 21.1273 17.8173 20.19 17.944C20.19 18.9573 20.2027 19.9833 20.228 21.022C20.2533 22.0607 20.266 23.0867 20.266 24.1C20.266 25.5187 20.152 26.5067 19.924 27.064C19.7213 27.6213 19.5187 27.9 19.316 27.9C19.0373 27.9 18.898 27.6467 18.898 27.14C18.898 25.4427 18.822 23.8593 18.67 22.39C18.518 20.8953 18.3027 19.502 18.024 18.21C16.7827 18.3367 15.4653 18.476 14.072 18.628C12.704 18.7547 11.336 18.8813 9.968 19.008C8.6 19.1347 7.33333 19.2613 6.168 19.388C5.35733 20.6547 4.54667 21.9847 3.736 23.378C2.95067 24.7713 2.19067 26.19 1.456 27.634C1.38 27.8113 1.228 27.9 1 27.9ZM8.22 16.386C9.71467 16.2593 11.2853 16.1833 12.932 16.158C14.5787 16.1073 16.1367 16.082 17.606 16.082C17.1753 14.2833 16.7067 12.7 16.2 11.332C15.7187 9.93867 15.3387 8.748 15.06 7.76C14.4013 8.41867 13.4513 9.49533 12.21 10.99C10.994 12.4847 9.664 14.2833 8.22 16.386ZM25.1736 25.012C24.7176 25.012 24.5023 24.8473 24.5276 24.518C24.6543 23.8847 24.7556 23.112 24.8316 22.2C24.933 21.2627 24.9836 20.3633 24.9836 19.502C24.9836 18.6407 24.9076 17.906 24.7556 17.298C24.629 16.6647 24.3756 16.348 23.9956 16.348C23.4383 16.3227 23.1596 16.2087 23.1596 16.006C23.1596 15.854 23.299 15.7147 23.5776 15.588C23.9576 15.3853 24.3883 15.208 24.8696 15.056C25.351 14.904 25.8323 14.828 26.3136 14.828C26.5923 14.828 26.871 14.866 27.1496 14.942C27.4283 14.9927 27.6943 15.094 27.9476 15.246C28.2516 15.4233 28.4416 15.6893 28.5176 16.044C28.619 16.3987 28.6823 16.7153 28.7076 16.994C28.7583 17.298 28.7836 17.45 28.7836 17.45C28.8343 17.45 28.885 17.3867 28.9356 17.26C29.0116 17.1333 29.075 17.032 29.1256 16.956C29.6576 16.1453 30.3163 15.3473 31.1016 14.562C31.9123 13.7513 32.761 13.08 33.6476 12.548C34.5343 11.9907 35.3323 11.712 36.0416 11.712C36.827 11.712 37.4096 11.9653 37.7896 12.472C38.1696 12.9787 38.3596 13.46 38.3596 13.916C38.3596 14.4987 38.0936 14.79 37.5616 14.79C37.1563 14.79 36.865 14.6887 36.6876 14.486C36.5356 14.258 36.371 14.0427 36.1936 13.84C36.0416 13.6373 35.7756 13.536 35.3956 13.536C34.737 13.536 34.0656 13.7893 33.3816 14.296C32.6976 14.7773 32.115 15.3093 31.6336 15.892C30.8483 16.8293 30.1896 17.944 29.6576 19.236C29.151 20.5027 28.809 21.744 28.6316 22.96C28.581 23.3147 28.3403 23.6567 27.9096 23.986C27.5043 24.29 27.0356 24.5433 26.5036 24.746C25.997 24.9233 25.5536 25.012 25.1736 25.012ZM40.8519 26.988C40.6492 26.988 40.3959 26.8993 40.0919 26.722C39.7879 26.57 39.4332 26.2153 39.0279 25.658C38.6986 25.202 38.4452 24.5687 38.2679 23.758C38.1159 22.9473 38.0399 22.1367 38.0399 21.326C38.0399 20.262 38.1032 19.3753 38.2299 18.666C38.3566 17.9567 38.4452 17.5007 38.4959 17.298C38.1159 16.9433 37.7992 16.69 37.5459 16.538C37.2926 16.386 37.1659 16.2087 37.1659 16.006C37.1659 15.6513 37.4066 15.3727 37.8879 15.17C38.3946 14.942 38.9519 14.8027 39.5599 14.752C39.7879 14.22 39.9906 13.65 40.1679 13.042C40.3452 12.4087 40.5226 11.8133 40.6999 11.256C40.8772 10.6733 41.0672 10.2173 41.2699 9.888C41.6246 9.30533 42.1692 8.91267 42.9039 8.71C43.6639 8.50733 44.3859 8.406 45.0699 8.406C45.7539 8.406 46.2986 8.482 46.7039 8.634C47.1346 8.76067 47.2359 8.91267 47.0079 9.09C46.6026 9.36867 46.1592 9.85 45.6779 10.534C45.1966 11.1927 44.7279 11.9147 44.2719 12.7C43.8159 13.4853 43.3979 14.2073 43.0179 14.866H48.0339C48.9459 14.866 49.4019 14.942 49.4019 15.094C49.4019 15.3473 48.8446 15.4993 47.7299 15.55C46.2859 15.5753 45.2219 15.6133 44.5379 15.664C43.8792 15.7147 43.4106 15.7653 43.1319 15.816C42.7772 15.892 42.5112 16.006 42.3339 16.158C42.1566 16.31 42.0046 16.5633 41.8779 16.918C41.4472 18.0073 41.0926 19.1473 40.8139 20.338C40.5606 21.5033 40.4339 22.5673 40.4339 23.53C40.4339 24.2647 40.5099 24.898 40.6619 25.43C40.8392 25.9367 41.0926 26.2787 41.4219 26.456C41.4979 26.4813 41.5359 26.532 41.5359 26.608C41.5359 26.684 41.4726 26.76 41.3459 26.836C41.2192 26.9373 41.0546 26.988 40.8519 26.988ZM49.651 26.152C49.2457 26.152 48.8023 25.9367 48.321 25.506C47.865 25.0753 47.637 24.518 47.637 23.834C47.637 22.6687 47.7763 21.364 48.055 19.92C48.359 18.4507 48.7643 16.9687 49.271 15.474C49.7777 13.954 50.3223 12.51 50.905 11.142C51.513 9.74867 52.121 8.53267 52.729 7.494C52.9823 7.06333 53.3497 6.70867 53.831 6.43C54.3377 6.15133 54.8823 5.94867 55.465 5.822C56.0477 5.69533 56.567 5.632 57.023 5.632C57.631 5.632 58.011 5.708 58.163 5.86C58.3403 5.98667 58.429 6.202 58.429 6.506C58.429 6.75933 58.353 7.06333 58.201 7.418C58.0743 7.74733 57.783 8.20333 57.327 8.786C55.959 10.5087 54.895 12.168 54.135 13.764C53.375 15.36 52.843 16.7533 52.539 17.944C52.2603 19.1347 52.121 20.0213 52.121 20.604C52.121 20.8573 52.1337 21.022 52.159 21.098C52.235 20.9713 52.3617 20.8067 52.539 20.604C52.7163 20.4013 52.9443 20.1733 53.223 19.92C53.831 19.3627 54.5403 18.78 55.351 18.172C56.1617 17.5387 57.0483 17.0067 58.011 16.576C58.9737 16.12 59.9743 15.892 61.013 15.892C61.697 15.892 62.3683 15.9933 63.027 16.196C63.6857 16.3733 64.2303 16.7027 64.661 17.184C65.117 17.64 65.345 18.286 65.345 19.122C65.345 19.5527 65.231 20.0973 65.003 20.756C64.8003 21.4147 64.5597 22.086 64.281 22.77C64.0023 23.4287 63.7617 24.0113 63.559 24.518C63.4323 24.8473 63.217 25.126 62.913 25.354C62.6343 25.5567 62.3937 25.658 62.191 25.658C61.963 25.658 61.849 25.5693 61.849 25.392C61.849 25.2907 61.8997 25.1007 62.001 24.822C62.3303 23.7833 62.571 22.884 62.723 22.124C62.9003 21.3387 62.989 20.6547 62.989 20.072C62.989 19.16 62.8117 18.3747 62.457 17.716C62.1277 17.0573 61.5703 16.728 60.785 16.728C59.9997 16.728 59.0877 17.0193 58.049 17.602C57.0357 18.1847 56.0097 18.9447 54.971 19.882C53.9577 20.794 53.033 21.7693 52.197 22.808C51.361 23.8467 50.753 24.8093 50.373 25.696C50.221 26 49.9803 26.152 49.651 26.152ZM100.762 27.824C99.8248 27.6973 98.7735 27.3427 97.6082 26.76C96.4682 26.1773 95.3155 25.4933 94.1502 24.708C92.9848 23.9227 91.8955 23.15 90.8822 22.39C89.8688 21.6047 89.0328 20.9333 88.3742 20.376C87.7155 19.8187 87.3355 19.4893 87.2342 19.388C86.8288 18.9573 86.4615 18.5267 86.1322 18.096C85.8028 17.64 85.6382 17.1967 85.6382 16.766C85.6382 16.4873 85.7142 16.2213 85.8662 15.968C85.9928 15.7653 86.4108 15.3093 87.1202 14.6C87.8548 13.8907 88.7922 13.0547 89.9322 12.092C91.0722 11.104 92.3262 10.0907 93.6942 9.052C95.0622 8.01333 96.4555 7.038 97.8742 6.126C99.2928 5.214 100.648 4.47933 101.94 3.922C103.258 3.33933 104.398 3.048 105.36 3.048C105.867 3.048 106.31 3.26333 106.69 3.694C107.096 4.12467 107.412 4.63133 107.64 5.214C107.894 5.77133 108.02 6.26533 108.02 6.696C108.02 7.228 107.843 7.494 107.488 7.494C105.107 7.494 102.878 7.89933 100.8 8.71C98.7228 9.49533 96.6835 10.5973 94.6822 12.016C92.7062 13.4093 90.6162 15.018 88.4122 16.842C88.9188 17.5767 89.8942 18.6153 91.3382 19.958C92.7822 21.3007 94.7328 22.7827 97.1902 24.404C98.6848 25.3667 99.7362 26.1013 100.344 26.608C100.978 27.14 101.294 27.4947 101.294 27.672C101.294 27.824 101.117 27.8747 100.762 27.824ZM82.3702 26.532C82.4462 26.6333 82.3828 26.684 82.1802 26.684C82.0028 26.7093 81.7368 26.532 81.3822 26.152C81.0275 25.7973 80.6222 25.1387 80.1662 24.176C80.0395 23.8973 79.9508 23.5807 79.9002 23.226C79.8495 22.8713 79.8242 22.4913 79.8242 22.086C79.8242 20.9967 79.9635 19.768 80.2422 18.4C80.5462 17.0067 80.8755 15.6133 81.2302 14.22C81.6102 12.8267 81.9395 11.56 82.2182 10.42C82.5222 9.28 82.6742 8.406 82.6742 7.798C82.6742 7.44333 82.6235 7.21533 82.5222 7.114C82.2942 6.81 82.1802 6.53133 82.1802 6.278C82.1802 5.92333 82.3955 5.65733 82.8262 5.48C83.2822 5.30267 83.8015 5.214 84.3842 5.214C84.8655 5.214 85.3468 5.27733 85.8282 5.404C86.3095 5.50533 86.7148 5.67 87.0442 5.898C87.2215 6.05 87.3102 6.30333 87.3102 6.658C87.3102 7.21533 87.1202 8.00067 86.7402 9.014C86.3855 10.0273 85.9295 11.18 85.3722 12.472C84.8402 13.7387 84.2955 15.0687 83.7382 16.462C83.1808 17.83 82.7122 19.1727 82.3322 20.49C81.9775 21.8073 81.8002 23.0107 81.8002 24.1C81.8002 25.0627 81.9902 25.8733 82.3702 26.532ZM118.832 26.608C118.579 26.608 118.49 26.3673 118.566 25.886C118.693 25.1513 118.782 24.4167 118.832 23.682C118.908 22.922 118.946 22.2633 118.946 21.706C118.946 21.174 118.908 20.7433 118.832 20.414C118.782 20.0593 118.668 19.882 118.49 19.882C118.414 19.882 118.3 19.92 118.148 19.996C118.022 20.072 117.794 20.224 117.464 20.452C116.907 20.8573 116.185 21.3007 115.298 21.782C114.437 22.2633 113.5 22.7447 112.486 23.226C111.473 23.7073 110.485 24.1633 109.522 24.594C108.56 25.0247 107.698 25.4173 106.938 25.772C106.508 25.9493 106.014 26.038 105.456 26.038C104.823 26.038 104.24 25.9367 103.708 25.734C103.202 25.506 102.948 25.164 102.948 24.708C102.948 24.0747 103.176 23.226 103.632 22.162C104.088 21.098 104.785 19.9453 105.722 18.704C106.66 17.4373 107.825 16.2213 109.218 15.056C110.156 14.2707 111.144 13.65 112.182 13.194C113.221 12.738 114.348 12.51 115.564 12.51C116.198 12.51 116.869 12.586 117.578 12.738C118.288 12.89 118.883 13.1433 119.364 13.498C119.871 13.8527 120.124 14.3467 120.124 14.98C120.124 15.436 120.01 15.7653 119.782 15.968C119.58 16.1453 119.364 16.234 119.136 16.234C118.832 16.234 118.452 16.1073 117.996 15.854C117.566 15.6007 116.983 15.474 116.248 15.474C115.716 15.474 115.172 15.5627 114.614 15.74C114.057 15.892 113.436 16.158 112.752 16.538C111.587 17.1967 110.548 17.9187 109.636 18.704C108.724 19.464 108.002 20.2113 107.47 20.946C106.964 21.6807 106.71 22.314 106.71 22.846C106.71 23.226 106.837 23.53 107.09 23.758C107.369 23.986 107.711 24.1 108.116 24.1C108.75 24.1 109.484 23.91 110.32 23.53C111.156 23.1247 111.954 22.7193 112.714 22.314C114.285 21.478 115.476 20.7687 116.286 20.186C117.122 19.6033 117.756 19.1473 118.186 18.818C118.642 18.4633 119.073 18.2227 119.478 18.096C119.554 18.0707 119.694 18.058 119.896 18.058C120.302 18.058 120.745 18.1467 121.226 18.324C121.733 18.476 121.974 18.628 121.948 18.78C121.948 19.236 121.796 19.768 121.492 20.376C121.188 20.9587 120.935 21.6553 120.732 22.466C120.606 23.0233 120.517 23.53 120.466 23.986C120.441 24.4167 120.314 24.9993 120.086 25.734C120.061 25.8353 119.896 26 119.592 26.228C119.288 26.4813 119.035 26.608 118.832 26.608ZM127.975 26.608C126.607 26.608 125.467 26.2787 124.555 25.62C123.669 24.936 123.225 24.0493 123.225 22.96C123.225 22.048 123.555 21.06 124.213 19.996C124.872 18.9067 125.809 17.8553 127.025 16.842C127.557 16.4113 128.343 16.006 129.381 15.626C130.445 15.246 131.598 14.942 132.839 14.714C134.081 14.486 135.221 14.372 136.259 14.372C136.994 14.372 137.64 14.448 138.197 14.6C138.755 14.7267 139.135 14.942 139.337 15.246C139.337 14.638 139.413 13.878 139.565 12.966C139.717 12.0287 139.793 11.1167 139.793 10.23C139.793 9.82467 139.768 9.44467 139.717 9.09C139.667 8.73533 139.578 8.406 139.451 8.102C139.401 7.97533 139.35 7.836 139.299 7.684C139.249 7.50667 139.223 7.32933 139.223 7.152C139.223 6.848 139.312 6.60733 139.489 6.43C139.667 6.25267 139.971 6.164 140.401 6.164C141.516 6.164 142.377 6.43 142.985 6.962C143.619 7.46867 143.935 8.24133 143.935 9.28C143.935 10.1413 143.745 11.142 143.365 12.282C142.985 13.3967 142.555 14.5873 142.073 15.854C141.592 17.0953 141.161 18.324 140.781 19.54C140.401 20.756 140.211 21.896 140.211 22.96C140.211 23.5933 140.3 24.1887 140.477 24.746C140.68 25.278 141.009 25.7593 141.465 26.19C141.491 26.19 141.503 26.19 141.503 26.19C141.503 26.2153 141.503 26.228 141.503 26.228C141.503 26.304 141.415 26.38 141.237 26.456C141.085 26.532 140.908 26.57 140.705 26.57C140.503 26.57 140.275 26.5067 140.021 26.38C139.793 26.2533 139.603 26.0253 139.451 25.696C139.198 25.164 139.033 24.6573 138.957 24.176C138.881 23.6947 138.843 23.2767 138.843 22.922C138.843 22.5927 138.856 22.3393 138.881 22.162C138.907 21.9593 138.894 21.8453 138.843 21.82C138.818 21.7947 138.628 21.9593 138.273 22.314C137.108 23.4793 135.879 24.3787 134.587 25.012C133.295 25.62 132.067 26.038 130.901 26.266C129.736 26.494 128.761 26.608 127.975 26.608ZM128.963 25.696C129.799 25.696 130.673 25.5313 131.585 25.202C132.497 24.8727 133.371 24.4673 134.207 23.986C135.069 23.4793 135.841 22.96 136.525 22.428C137.209 21.896 137.754 21.4147 138.159 20.984C138.565 20.528 138.78 20.2113 138.805 20.034C138.932 19.274 139.059 18.6787 139.185 18.248C139.312 17.792 139.375 17.3613 139.375 16.956C139.375 16.5253 139.223 16.234 138.919 16.082C138.641 15.93 138.071 15.854 137.209 15.854C136.424 15.854 135.487 16.006 134.397 16.31C133.333 16.5887 132.244 17.07 131.129 17.754C130.04 18.4127 129.027 19.3373 128.089 20.528C126.924 21.9973 126.341 23.188 126.341 24.1C126.341 25.164 127.215 25.696 128.963 25.696ZM149.197 12.054C148.944 12.054 148.754 12.0287 148.627 11.978C148.501 11.902 148.374 11.8133 148.247 11.712C148.095 11.56 147.918 11.3827 147.715 11.18C147.513 10.952 147.411 10.762 147.411 10.61C147.411 10.4833 147.487 10.4073 147.639 10.382C148.957 9.97667 149.945 9.774 150.603 9.774C151.009 9.774 151.313 9.83733 151.515 9.964C151.743 10.0653 151.933 10.2173 152.085 10.42C152.136 10.4453 152.225 10.572 152.351 10.8C152.478 11.0027 152.541 11.1293 152.541 11.18C152.541 11.3573 152.326 11.4713 151.895 11.522C151.465 11.5727 151.11 11.6233 150.831 11.674C150.553 11.7753 150.274 11.864 149.995 11.94C149.742 12.016 149.476 12.054 149.197 12.054ZM148.513 25.62C148.361 25.62 148.184 25.4807 147.981 25.202C147.779 24.9233 147.576 24.6193 147.373 24.29C146.867 23.4033 146.449 22.4913 146.119 21.554C145.79 20.6167 145.625 19.7173 145.625 18.856C145.625 18.0707 145.777 17.336 146.081 16.652C146.385 15.968 146.867 15.3853 147.525 14.904C147.905 14.6 148.45 14.448 149.159 14.448C149.59 14.448 149.97 14.5367 150.299 14.714C150.629 14.866 150.793 15.1573 150.793 15.588C150.793 15.9933 150.616 16.5253 150.261 17.184C149.932 17.8427 149.628 18.552 149.349 19.312C149.197 19.7933 149.071 20.3507 148.969 20.984C148.893 21.6173 148.868 22.3393 148.893 23.15C148.893 23.3273 148.893 23.492 148.893 23.644C148.919 23.7707 148.931 23.8973 148.931 24.024C148.931 24.6067 148.893 25.0247 148.817 25.278C148.741 25.506 148.64 25.62 148.513 25.62ZM156.911 32.764C156.734 32.764 156.645 32.6753 156.645 32.498C156.645 32.346 156.709 32.118 156.835 31.814C156.962 31.5353 157.114 31.206 157.291 30.826C157.874 29.686 158.444 28.622 159.001 27.634C159.584 26.646 160.167 25.696 160.749 24.784C159.584 24.1 158.545 23.3147 157.633 22.428C156.747 21.5413 155.987 20.68 155.353 19.844C154.745 19.008 154.277 18.2987 153.947 17.716C153.643 17.1333 153.491 16.8167 153.491 16.766C153.491 16.6393 153.605 16.538 153.833 16.462C154.087 16.386 154.365 16.3353 154.669 16.31C154.999 16.2847 155.277 16.272 155.505 16.272C155.759 16.272 155.885 16.272 155.885 16.272C156.316 18.1973 157.051 19.8187 158.089 21.136C159.153 22.428 160.217 23.378 161.281 23.986C162.345 22.314 163.232 20.6167 163.941 18.894C164.676 17.146 165.398 15.17 166.107 12.966C166.107 12.89 166.209 12.852 166.411 12.852C166.665 12.852 167.019 12.9153 167.475 13.042C167.957 13.1687 168.425 13.346 168.881 13.574C169.363 13.7767 169.743 14.0173 170.021 14.296C170.325 14.5493 170.439 14.8027 170.363 15.056C169.907 16.3733 169.261 17.792 168.425 19.312C167.589 20.8067 166.652 22.2887 165.613 23.758C164.6 25.202 163.574 26.5447 162.535 27.786C161.497 29.0273 160.547 30.066 159.685 30.902C158.849 31.738 158.191 32.27 157.709 32.498C157.355 32.6753 157.089 32.764 156.911 32.764ZM188.153 26.608C187.899 26.608 187.811 26.3673 187.887 25.886C188.013 25.1513 188.102 24.4167 188.153 23.682C188.229 22.922 188.267 22.2633 188.267 21.706C188.267 21.174 188.229 20.7433 188.153 20.414C188.102 20.0593 187.988 19.882 187.811 19.882C187.735 19.882 187.621 19.92 187.469 19.996C187.342 20.072 187.114 20.224 186.785 20.452C186.227 20.8573 185.505 21.3007 184.619 21.782C183.757 22.2633 182.82 22.7447 181.807 23.226C180.793 23.7073 179.805 24.1633 178.843 24.594C177.88 25.0247 177.019 25.4173 176.259 25.772C175.828 25.9493 175.334 26.038 174.777 26.038C174.143 26.038 173.561 25.9367 173.029 25.734C172.522 25.506 172.269 25.164 172.269 24.708C172.269 24.0747 172.497 23.226 172.953 22.162C173.409 21.098 174.105 19.9453 175.043 18.704C175.98 17.4373 177.145 16.2213 178.539 15.056C179.476 14.2707 180.464 13.65 181.503 13.194C182.541 12.738 183.669 12.51 184.885 12.51C185.518 12.51 186.189 12.586 186.899 12.738C187.608 12.89 188.203 13.1433 188.685 13.498C189.191 13.8527 189.445 14.3467 189.445 14.98C189.445 15.436 189.331 15.7653 189.103 15.968C188.9 16.1453 188.685 16.234 188.457 16.234C188.153 16.234 187.773 16.1073 187.317 15.854C186.886 15.6007 186.303 15.474 185.569 15.474C185.037 15.474 184.492 15.5627 183.935 15.74C183.377 15.892 182.757 16.158 182.073 16.538C180.907 17.1967 179.869 17.9187 178.957 18.704C178.045 19.464 177.323 20.2113 176.791 20.946C176.284 21.6807 176.031 22.314 176.031 22.846C176.031 23.226 176.157 23.53 176.411 23.758C176.689 23.986 177.031 24.1 177.437 24.1C178.07 24.1 178.805 23.91 179.641 23.53C180.477 23.1247 181.275 22.7193 182.035 22.314C183.605 21.478 184.796 20.7687 185.607 20.186C186.443 19.6033 187.076 19.1473 187.507 18.818C187.963 18.4633 188.393 18.2227 188.799 18.096C188.875 18.0707 189.014 18.058 189.217 18.058C189.622 18.058 190.065 18.1467 190.547 18.324C191.053 18.476 191.294 18.628 191.269 18.78C191.269 19.236 191.117 19.768 190.813 20.376C190.509 20.9587 190.255 21.6553 190.053 22.466C189.926 23.0233 189.837 23.53 189.787 23.986C189.761 24.4167 189.635 24.9993 189.407 25.734C189.381 25.8353 189.217 26 188.913 26.228C188.609 26.4813 188.355 26.608 188.153 26.608Z" fill="black"/>
</svg>
